<svg xmlns="http://www.w3.org/2000/svg" viewBox="0 0 266.534 119.783"><style>.st0{fill:#86704d}.st1{fill:#231f20}</style><path class="st0" d="M.002 95.288h266.53v1.004H.002zm0-77.249h266.53v1.004H.002z"/><path d="M2.488 9.405H.002V.145h2.685c2.394 0 3.571 1.402 3.571 4.563 0 3.334-1.257 4.697-3.77 4.697zm.119-7.421h-.396v5.595h.344c1.032 0 1.442-.489 1.442-2.83 0-2.262-.358-2.765-1.39-2.765zm5.309 7.421V.145h5.423v1.892h-3.227v1.587h2.103v1.878h-2.103v2.011h3.32v1.891H7.916zm7.186 0V.145h2.222v7.328h2.884v1.931h-5.106zm6.696 0V.145h2.235v9.259h-2.235zm8.257 0h-2.209L25.531.146h2.354l.49 2.712c.225 1.216.502 2.962.595 3.902.08-.939.358-2.686.569-3.902l.476-2.712h2.341l-2.301 9.259zm3.76 0V.145h5.423v1.892h-3.227v1.587h2.103v1.878h-2.103v2.011h3.32v1.891h-5.516zm11.036 0L43.766 5.86h-.595v3.545h-2.169V.145h3.201c1.667 0 2.87.754 2.87 2.818 0 1.204-.463 1.984-1.217 2.434l1.349 4.008h-2.354zm-.807-7.5h-.873v2.262h.833c.635 0 .873-.37.873-1.137s-.225-1.125-.833-1.125zm4.818 7.5V.145h2.235v9.259h-2.235zm8.733 0l-1.362-2.659c-.516-1.005-1.005-2.011-1.191-2.54.053.529.066 1.707.066 2.58v2.619h-2.077V.145h1.931l1.177 2.116c.529.953 1.058 2.09 1.23 2.592-.053-.502-.079-1.785-.079-2.632V.145h2.077v9.259h-1.772zm6.71.145c-2.09 0-3.294-1.561-3.294-4.775C61.011 1.693 62.109 0 64.345 0c1.944 0 2.619 1.018 3.016 2.765l-2.116.609c-.198-1.005-.357-1.469-.913-1.469-.78 0-1.032.741-1.032 2.87 0 2.288.331 2.91 1.138 2.91.714 0 .926-.423.979-1.164v-.383h-1.071V4.444h3.161V5.9c-.001 2.248-1.033 3.65-3.202 3.65zm11.779-3.505h-.794v3.36h-2.169V.145h3.121c1.654 0 2.87.741 2.87 2.884 0 2.196-1.256 3.016-3.028 3.016zm-.04-4.1h-.754v2.302h.714c.635 0 .913-.331.913-1.164 0-.821-.252-1.138-.873-1.138zm8.416 7.46L83.376 5.86h-.596v3.545h-2.169V.145h3.201c1.667 0 2.87.754 2.87 2.818 0 1.204-.463 1.984-1.217 2.434l1.35 4.008H84.46zm-.807-7.5h-.873v2.262h.833c.635 0 .873-.37.873-1.137s-.224-1.125-.833-1.125zm7.663 7.645c-2.077 0-3.294-1.494-3.294-4.762S89.266 0 91.343 0s3.307 1.508 3.307 4.762c0 3.267-1.244 4.788-3.334 4.788zm.014-7.645c-.701 0-1.032.622-1.032 2.857s.357 2.883 1.045 2.883 1.032-.621 1.032-2.857-.358-2.883-1.045-2.883zm10.348 7.5v-2.05c0-.992.013-1.892.053-2.685-.198.728-.582 1.878-.873 2.711l-.873 2.315-.873-2.315a45.02 45.02 0 01-.873-2.711c.026.767.053 1.693.053 2.685v2.05h-2.01V.145h2.01l.82 2.275c.397 1.098.754 2.196.873 2.844.132-.648.476-1.72.886-2.857l.807-2.262h1.997v9.259h-1.997zm3.933 0V.145h2.235v9.259h-2.235zm6.92.145c-1.442 0-2.275-.595-3.043-1.613l1.508-1.362c.622.74 1.124 1.124 1.574 1.124.463 0 .794-.238.794-.74 0-.516-.145-.834-1.19-1.296-1.839-.807-2.513-1.508-2.513-2.963 0-1.508 1.098-2.699 2.87-2.699 1.428 0 2.143.516 2.91 1.468l-1.534 1.376c-.635-.754-.86-.992-1.442-.992-.423 0-.661.317-.661.661 0 .49.238.767 1.177 1.177 1.865.82 2.553 1.587 2.553 3.135-.001 1.732-1.283 2.724-3.003 2.724zm4.634-.145V.145h5.423v1.892h-3.227v1.587h2.103v1.878h-2.103v2.011h3.32v1.891h-5.516zm9.856.145c-1.442 0-2.275-.595-3.043-1.613l1.508-1.362c.622.74 1.124 1.124 1.574 1.124.463 0 .794-.238.794-.74 0-.516-.145-.834-1.19-1.296-1.839-.807-2.513-1.508-2.513-2.963 0-1.508 1.098-2.699 2.87-2.699 1.428 0 2.143.516 2.91 1.468l-1.534 1.376c-.635-.754-.86-.992-1.442-.992-.423 0-.661.317-.661.661 0 .49.238.767 1.177 1.177 1.865.82 2.553 1.587 2.553 3.135-.001 1.732-1.283 2.724-3.003 2.724zm12.929-.145l-.344-1.72h-1.826l-.331 1.72h-2.275l2.394-9.259h2.275l2.381 9.259h-2.274zm-.767-3.823c-.212-1.217-.41-2.222-.503-3.069-.079.847-.264 1.852-.49 3.082l-.053.291h1.098l-.052-.304zm9.051 3.823l-1.362-2.659c-.516-1.005-1.005-2.011-1.191-2.54.053.529.066 1.707.066 2.58v2.619h-2.077V.145h1.931l1.177 2.116c.529.953 1.058 2.09 1.23 2.592-.053-.502-.079-1.785-.079-2.632V.145h2.077v9.259h-1.772zm6.155 0h-2.486V.145h2.685c2.394 0 3.571 1.402 3.571 4.563 0 3.334-1.257 4.697-3.77 4.697zm.119-7.421h-.396v5.595h.344c1.032 0 1.442-.489 1.442-2.83-.001-2.262-.358-2.765-1.39-2.765zm11.752 7.421h-2.486V.145h2.685c2.394 0 3.572 1.402 3.572 4.563-.001 3.334-1.258 4.697-3.771 4.697zm.119-7.421h-.396v5.595h.344c1.032 0 1.442-.489 1.442-2.83-.001-2.262-.358-2.765-1.39-2.765zm9.158 7.421l-1.085-3.545h-.595v3.545h-2.169V.145h3.201c1.667 0 2.87.754 2.87 2.818 0 1.204-.463 1.984-1.217 2.434l1.349 4.008h-2.354zm-.807-7.5h-.873v2.262h.833c.635 0 .873-.37.873-1.137s-.225-1.125-.833-1.125zm4.818 7.5V.145h2.235v9.259h-2.235zm8.257 0h-2.209L183.281.146h2.354l.49 2.712c.225 1.217.502 2.963.595 3.902.08-.939.358-2.686.569-3.902l.476-2.712h2.341l-2.301 9.259zm3.8 0V.145h2.235v9.259h-2.235zm8.733 0l-1.362-2.659c-.516-1.005-1.005-2.011-1.191-2.54.053.529.066 1.707.066 2.58v2.619h-2.077V.145h1.931l1.177 2.116c.529.953 1.058 2.09 1.23 2.592-.053-.502-.079-1.785-.079-2.632V.145h2.077v9.259h-1.772zm6.71.145c-2.09 0-3.294-1.561-3.294-4.775 0-3.082 1.098-4.775 3.333-4.775 1.944 0 2.619 1.018 3.016 2.765l-2.116.609c-.198-1.005-.357-1.469-.913-1.469-.78 0-1.032.741-1.032 2.87 0 2.288.331 2.91 1.138 2.91.714 0 .926-.423.979-1.164v-.383h-1.071V4.444h3.161V5.9c0 2.248-1.032 3.65-3.201 3.65zm11.567 0c-1.442 0-2.275-.595-3.043-1.613l1.508-1.362c.622.74 1.124 1.124 1.574 1.124.463 0 .794-.238.794-.74 0-.516-.145-.834-1.191-1.296-1.839-.807-2.513-1.508-2.513-2.963 0-1.508 1.098-2.699 2.87-2.699 1.428 0 2.143.516 2.91 1.468l-1.534 1.376c-.635-.754-.86-.992-1.442-.992-.423 0-.661.317-.661.661 0 .49.238.767 1.177 1.177 1.865.82 2.553 1.587 2.553 3.135 0 1.732-1.283 2.724-3.002 2.724zm7.742 0c-1.918 0-3.148-1.058-3.148-3.333V.145h2.235v6.138c0 .886.291 1.35.953 1.35.648 0 .912-.463.912-1.35V.145h2.235v6.019c0 2.341-1.216 3.386-3.187 3.386zm8.059 0c-2.169 0-3.267-1.653-3.267-4.762 0-3.214 1.23-4.789 3.294-4.789 1.945 0 2.619 1.111 2.976 2.884l-2.143.582c-.159-1.031-.304-1.561-.847-1.561-.715 0-.992.754-.992 2.857 0 2.129.278 2.883 1.019 2.883.516 0 .688-.37.939-1.508l2.05.701c-.41 1.681-1.191 2.713-3.029 2.713zm7.41 0c-2.169 0-3.267-1.653-3.267-4.762 0-3.214 1.23-4.789 3.294-4.789 1.945 0 2.619 1.111 2.976 2.884l-2.143.582c-.159-1.031-.304-1.561-.847-1.561-.715 0-.992.754-.992 2.857 0 2.129.278 2.883 1.019 2.883.516 0 .688-.37.939-1.508l2.05.701c-.41 1.681-1.191 2.713-3.029 2.713zm4.607-.145V.145h5.423v1.892h-3.227v1.587h2.103v1.878h-2.103v2.011h3.32v1.891h-5.516zm9.856.145c-1.442 0-2.275-.595-3.043-1.613l1.508-1.362c.622.74 1.124 1.124 1.574 1.124.463 0 .794-.238.794-.74 0-.516-.145-.834-1.191-1.296-1.839-.807-2.513-1.508-2.513-2.963 0-1.508 1.098-2.699 2.87-2.699 1.428 0 2.143.516 2.91 1.468l-1.534 1.376c-.635-.754-.859-.992-1.442-.992-.423 0-.661.317-.661.661 0 .49.238.767 1.177 1.177 1.865.82 2.553 1.587 2.553 3.135.001 1.732-1.282 2.724-3.002 2.724zm7.24 0c-1.442 0-2.275-.595-3.043-1.613l1.508-1.362c.622.74 1.124 1.124 1.574 1.124.463 0 .794-.238.794-.74 0-.516-.145-.834-1.191-1.296-1.839-.807-2.513-1.508-2.513-2.963 0-1.508 1.098-2.699 2.87-2.699 1.428 0 2.143.516 2.91 1.468l-1.534 1.376c-.635-.754-.86-.992-1.442-.992-.423 0-.661.317-.661.661 0 .49.238.767 1.177 1.177 1.865.82 2.553 1.587 2.553 3.135 0 1.732-1.282 2.724-3.002 2.724zM5.765 109.244v10.333H2.65v-10.333H.002v-2.723h8.412v2.723H5.765zm10.611 10.334v-5.465h-2.63v5.465h-3.152v-13.056h3.152v4.868h2.63v-4.868h3.152v13.056h-3.152zm5.797 0v-13.056h7.647v2.667h-4.55v2.238h2.966v2.649H25.27v2.835h4.682v2.667h-7.779zm20.998-10.334v10.333h-3.115v-10.333h-2.649v-2.723h8.412v2.723h-2.648zm10.256 10.334l-1.529-4.998h-.839v4.998H48v-13.056h4.514c2.35 0 4.047 1.063 4.047 3.973 0 1.697-.653 2.798-1.716 3.432l1.902 5.652h-3.32zm-1.137-10.576h-1.231v3.19h1.175c.896 0 1.231-.522 1.231-1.604-.001-1.082-.318-1.586-1.175-1.586zm12.643 10.576l-.485-2.425h-2.574l-.467 2.425h-3.208l3.376-13.056h3.208l3.357 13.056h-3.207zm-1.082-5.391c-.299-1.716-.578-3.133-.709-4.327-.112 1.194-.373 2.611-.69 4.346l-.075.41h1.548l-.074-.429zm12.755 5.391l-1.921-3.749c-.728-1.417-1.417-2.835-1.678-3.581.075.746.093 2.406.093 3.637v3.693h-2.928v-13.056h2.723l1.66 2.984c.746 1.343 1.492 2.947 1.735 3.656-.075-.708-.112-2.518-.112-3.711v-2.928h2.928v13.056h-2.5zm9.043.205c-2.033 0-3.208-.84-4.29-2.276l2.126-1.921c.876 1.045 1.585 1.585 2.22 1.585.653 0 1.119-.336 1.119-1.045 0-.727-.205-1.175-1.679-1.828-2.592-1.138-3.544-2.126-3.544-4.178 0-2.126 1.548-3.805 4.047-3.805 2.015 0 3.022.727 4.103 2.07l-2.163 1.94c-.896-1.063-1.212-1.399-2.033-1.399-.597 0-.933.448-.933.933 0 .69.336 1.082 1.66 1.66 2.63 1.156 3.6 2.238 3.6 4.42.001 2.445-1.808 3.844-4.233 3.844zm10.704-4.943h-1.119v4.737h-3.059v-13.056h4.402c2.332 0 4.048 1.045 4.048 4.066-.001 3.097-1.773 4.253-4.272 4.253zm-.057-5.782h-1.063v3.245h1.007c.896 0 1.287-.466 1.287-1.641.001-1.156-.354-1.604-1.231-1.604zm10.723 10.725c-2.928 0-4.645-2.108-4.645-6.715 0-4.607 1.753-6.752 4.682-6.752s4.663 2.126 4.663 6.714c-.001 4.608-1.754 6.753-4.7 6.753zm.018-10.781c-.988 0-1.455.877-1.455 4.029s.504 4.066 1.474 4.066 1.455-.877 1.455-4.029c-.001-3.152-.504-4.066-1.474-4.066zm12.4 10.576l-1.529-4.998h-.839v4.998h-3.059v-13.056h4.514c2.35 0 4.047 1.063 4.047 3.973 0 1.697-.653 2.798-1.716 3.432l1.902 5.652h-3.32zm-1.137-10.576h-1.231v3.19h1.175c.896 0 1.231-.522 1.231-1.604s-.317-1.586-1.175-1.586zm11.727.242v10.333h-3.115v-10.333h-2.649v-2.723h8.412v2.723h-2.648zm9.699 10.334l-.485-2.425h-2.574l-.467 2.425h-3.208l3.376-13.056h3.208l3.357 13.056h-3.207zm-1.082-5.391c-.299-1.716-.578-3.133-.709-4.327-.112 1.194-.373 2.611-.69 4.346l-.075.41h1.548l-.074-.429zm10.37-4.943v10.333h-3.115v-10.333h-2.649v-2.723h8.412v2.723h-2.648zm4.884 10.334v-13.056h3.152v13.056h-3.152zm10.164.205c-2.928 0-4.645-2.108-4.645-6.715 0-4.607 1.753-6.752 4.682-6.752 2.928 0 4.663 2.126 4.663 6.714 0 4.608-1.753 6.753-4.7 6.753zm.018-10.781c-.988 0-1.455.877-1.455 4.029s.504 4.066 1.474 4.066 1.455-.877 1.455-4.029-.504-4.066-1.474-4.066zm13.408 10.576l-1.921-3.749c-.728-1.417-1.417-2.835-1.678-3.581.075.746.093 2.406.093 3.637v3.693h-2.928v-13.056h2.723l1.66 2.984c.746 1.343 1.492 2.947 1.735 3.656-.075-.708-.112-2.518-.112-3.711v-2.928h2.928v13.056h-2.5zm14.618.205c-2.033 0-3.208-.84-4.29-2.276l2.126-1.921c.876 1.045 1.585 1.585 2.22 1.585.653 0 1.119-.336 1.119-1.045 0-.727-.205-1.175-1.679-1.828-2.592-1.138-3.544-2.126-3.544-4.178 0-2.126 1.548-3.805 4.047-3.805 2.015 0 3.022.727 4.103 2.07l-2.163 1.94c-.896-1.063-1.212-1.399-2.033-1.399-.597 0-.933.448-.933.933 0 .69.336 1.082 1.66 1.66 2.63 1.156 3.6 2.238 3.6 4.42.001 2.445-1.808 3.844-4.233 3.844zm10.761 0c-2.928 0-4.645-2.108-4.645-6.715 0-4.607 1.753-6.752 4.682-6.752 2.928 0 4.663 2.126 4.663 6.714 0 4.608-1.753 6.753-4.7 6.753zm.019-10.781c-.988 0-1.455.877-1.455 4.029s.504 4.066 1.474 4.066 1.455-.877 1.455-4.029c-.001-3.152-.504-4.066-1.474-4.066zm6.973 10.576v-13.056h3.133v10.333h4.066v2.723h-7.199zm13.298.205c-2.704 0-4.439-1.492-4.439-4.7v-8.561h3.152v8.655c0 1.249.41 1.902 1.343 1.902.914 0 1.287-.653 1.287-1.902v-8.655h3.152v8.487c0 3.3-1.716 4.774-4.495 4.774zm12.401-10.539v10.333h-3.115v-10.333h-2.649v-2.723h8.412v2.723h-2.648zm4.884 10.334v-13.056h3.152v13.056h-3.152zm10.164.205c-2.928 0-4.645-2.108-4.645-6.715 0-4.607 1.753-6.752 4.682-6.752 2.928 0 4.663 2.126 4.663 6.714 0 4.608-1.753 6.753-4.7 6.753zm.018-10.781c-.988 0-1.455.877-1.455 4.029s.504 4.066 1.474 4.066 1.455-.877 1.455-4.029-.504-4.066-1.474-4.066zm13.408 10.576l-1.921-3.749c-.728-1.417-1.417-2.835-1.678-3.581.075.746.093 2.406.093 3.637v3.693h-2.928v-13.056h2.723l1.66 2.984c.746 1.343 1.492 2.947 1.735 3.656-.075-.708-.112-2.518-.112-3.711v-2.928h2.928v13.056h-2.5z"/><path class="st1" d="M145.124 29.524l-9.169 9.169v16.505L144.757 64h39.856v8.56h-51.35l-16.139-8.498h3.487l8.862-8.864V38.693l-9.169-9.169h-53.55V72.56H12.471V42.727h35.701v8.313h12.805V38.693s-9.137-9.169-9.169-9.169H7.823L0 37.347v39.428l8.009 8.009h72.193V42.972h35.946v8.558H86.316V64l42.792 20.662h61.253l7.947-7.704v-17.36l-8.315-8.313h-41.08v-8.802h75.804v42.302h13.692V42.727h28.12V29.524H145.124zm100.907 48.315c-.959 0-1.778.339-2.458 1.016a3.35 3.35 0 00-1.021 2.457c0 .968.339 1.792 1.014 2.471.677.684 1.496 1.025 2.464 1.025.965 0 1.787-.341 2.469-1.025a3.367 3.367 0 001.023-2.471c0-.961-.341-1.78-1.023-2.457a3.366 3.366 0 00-2.468-1.016zm2.124 5.608a2.878 2.878 0 01-2.126.881 2.873 2.873 0 01-2.123-.881 2.915 2.915 0 01-.872-2.13c0-.828.293-1.531.877-2.117a2.89 2.89 0 012.119-.879c.83 0 1.537.293 2.126.879.583.586.874 1.288.874 2.117a2.918 2.918 0 01-.875 2.13z"/><path class="st1" d="M247.612 80.502c0-.48-.197-.803-.595-.968-.222-.094-.572-.14-1.048-.14h-1.341v3.819h.67v-1.492h.535c.359 0 .611.041.757.121.243.142.364.432.364.869v.3l.013.121a.243.243 0 00.009.044c.005.011.007.025.009.036h.625l-.021-.046a.593.593 0 01-.032-.199 4.046 4.046 0 01-.009-.284v-.277c0-.192-.071-.389-.208-.59-.14-.202-.359-.325-.661-.373.24-.037.423-.098.556-.185.254-.158.377-.41.377-.756zm-1.055.655c-.144.057-.359.085-.645.085h-.613v-1.366h.579c.377 0 .65.048.822.142.169.092.256.277.256.551 0 .29-.133.487-.399.588z"/><path class="st0" d="M266.534 35.478H147.015l-.354.147-4.585 4.587-.147.353v12.688l.147.354 4.395 4.396.354.146h40.268l3.857 3.856V74.53l-3.642 3.642h-55.847L94.369 59.547l.001-.701h24.21l.353-.147 4.826-4.825.147-.353V40.646l-.147-.353-4.988-4.988-.353-.146h-45.53l-.5.5v42.515H10.449l-3.711-3.71V40.246l3.619-3.619h39.428l4.289 4.289v10.121h1V40.709l-.146-.354-4.582-4.581-.354-.147H10.15l-.353.147-3.912 3.912-.147.353v34.632l.147.354 4.003 4.002.354.147h62.646l.5-.5V36.159h44.823l4.695 4.694v12.461l-4.533 4.532H93.87l-.5.5-.001 1.51.276.446 37.473 18.817.225.053h56.172l.353-.146 3.935-3.935.147-.354V61.798l-.147-.354-4.149-4.148-.354-.147h-40.268l-4.103-4.103V40.772l4.293-4.294h83.842v48.304h1V36.478h34.47z"/></svg>